<?xml version="1.0" encoding="UTF-8" standalone="no"?>
<!-- Created with Inkscape (http://www.inkscape.org/) -->

<svg
   xmlns:dc="http://purl.org/dc/elements/1.1/"
   xmlns:cc="http://creativecommons.org/ns#"
   xmlns:rdf="http://www.w3.org/1999/02/22-rdf-syntax-ns#"
   xmlns:svg="http://www.w3.org/2000/svg"
   xmlns="http://www.w3.org/2000/svg"
   xmlns:sodipodi="http://sodipodi.sourceforge.net/DTD/sodipodi-0.dtd"
   xmlns:inkscape="http://www.inkscape.org/namespaces/inkscape"
   width="128px"
   height="128px"
   viewBox="0 0 128 128"
   version="1.1"
   id="SVGRoot"
   sodipodi:docname="config_Save.svg"
   inkscape:version="0.92.1 r15371"
   inkscape:export-filename="D:\HBP\HiBoP\Assets\Sprites\3D Buttons\Configuration\Save.png"
   inkscape:export-xdpi="96"
   inkscape:export-ydpi="96">
  <sodipodi:namedview
     id="base"
     pagecolor="#ffffff"
     bordercolor="#666666"
     borderopacity="1.0"
     inkscape:pageopacity="0.0"
     inkscape:pageshadow="2"
     inkscape:zoom="5.6568542"
     inkscape:cx="30.52186"
     inkscape:cy="58.301238"
     inkscape:document-units="px"
     inkscape:current-layer="layer1"
     showgrid="false"
     inkscape:window-width="1920"
     inkscape:window-height="1017"
     inkscape:window-x="-8"
     inkscape:window-y="-8"
     inkscape:window-maximized="1"
     inkscape:grid-bbox="true" />
  <defs
     id="defs4485" />
  <metadata
     id="metadata4488">
    <rdf:RDF>
      <cc:Work
         rdf:about="">
        <dc:format>image/svg+xml</dc:format>
        <dc:type
           rdf:resource="http://purl.org/dc/dcmitype/StillImage" />
      </cc:Work>
    </rdf:RDF>
  </metadata>
  <g
     id="layer1"
     inkscape:groupmode="layer"
     inkscape:label="Calque 1">
    <path
       style="fill:#feff61;fill-opacity:1;stroke:none;stroke-width:10.46929169;stroke-linecap:butt;stroke-linejoin:round;stroke-miterlimit:4;stroke-dasharray:none;stroke-opacity:1"
       d="M 104.16797 8.7441406 L 11.949219 8.7773438 L 11.916016 17.429688 L 11.974609 119.88477 L 116.58984 119.88477 L 116.58984 22.523438 L 104.16797 8.7441406 z M 11.916016 17.429688 L 11.914062 15.103516 L 11.855469 32.769531 L 11.916016 17.429688 z M 71.695312 14.955078 L 86.283203 14.955078 C 87.185941 14.955078 87.914062 15.676283 87.914062 16.570312 L 87.914062 36.650391 C 87.914062 37.544421 87.185941 38.263672 86.283203 38.263672 L 71.695312 38.263672 C 70.792575 38.263672 70.066406 37.544421 70.066406 36.650391 L 70.066406 16.570312 C 70.066406 15.676283 70.792575 14.955078 71.695312 14.955078 z M 26.820312 69.380859 L 101.74414 69.380859 C 103.3313 69.380859 104.60937 70.617605 104.60938 72.152344 L 104.60938 106.62305 C 104.60938 108.15779 103.3313 109.39453 101.74414 109.39453 L 26.820312 109.39453 C 25.233158 109.39453 23.955078 108.15779 23.955078 106.62305 L 23.955078 72.152344 C 23.955078 70.617605 25.233158 69.380859 26.820312 69.380859 z "
       id="path5044" />
    <rect
       style="fill:none;fill-opacity:1;stroke:#000000;stroke-width:3.23949909;stroke-linecap:butt;stroke-linejoin:round;stroke-miterlimit:4;stroke-dasharray:none;stroke-opacity:1"
       id="rect5050"
       width="60.217041"
       height="38.679077"
       x="34.280865"
       y="6.4015579"
       rx="0.83629823"
       ry="0.83629823" />
  </g>
</svg>
