<?xml version="1.0" encoding="UTF-8" standalone="no"?>
<!-- Created with Inkscape (http://www.inkscape.org/) -->

<svg
   xmlns:dc="http://purl.org/dc/elements/1.1/"
   xmlns:cc="http://creativecommons.org/ns#"
   xmlns:rdf="http://www.w3.org/1999/02/22-rdf-syntax-ns#"
   xmlns:svg="http://www.w3.org/2000/svg"
   xmlns="http://www.w3.org/2000/svg"
   xmlns:sodipodi="http://sodipodi.sourceforge.net/DTD/sodipodi-0.dtd"
   xmlns:inkscape="http://www.inkscape.org/namespaces/inkscape"
   width="128px"
   height="128px"
   viewBox="0 0 128 128"
   version="1.1"
   id="SVGRoot"
   inkscape:version="0.92.2 (5c3e80d, 2017-08-06)"
   sodipodi:docname="coronal.svg"
   inkscape:export-filename="D:\HBP\HiBoP\Assets\Sprites\3D Buttons\coronal.png"
   inkscape:export-xdpi="96"
   inkscape:export-ydpi="96">
  <sodipodi:namedview
     id="base"
     pagecolor="#ffffff"
     bordercolor="#666666"
     borderopacity="1.0"
     inkscape:pageopacity="0.0"
     inkscape:pageshadow="2"
     inkscape:zoom="2.8284271"
     inkscape:cx="45.544908"
     inkscape:cy="111.27155"
     inkscape:document-units="px"
     inkscape:current-layer="layer1"
     showgrid="false"
     inkscape:window-width="2560"
     inkscape:window-height="1377"
     inkscape:window-x="-8"
     inkscape:window-y="-8"
     inkscape:window-maximized="1"
     inkscape:grid-bbox="true" />
  <defs
     id="defs4504" />
  <metadata
     id="metadata4507">
    <rdf:RDF>
      <cc:Work
         rdf:about="">
        <dc:format>image/svg+xml</dc:format>
        <dc:type
           rdf:resource="http://purl.org/dc/dcmitype/StillImage" />
        <dc:title></dc:title>
      </cc:Work>
    </rdf:RDF>
  </metadata>
  <g
     id="layer1"
     inkscape:groupmode="layer"
     inkscape:label="Calque 1">
    <g
       id="g5080"
       transform="matrix(1.2593044,0,0,1.2593044,-18.92202,-19.30905)"
       style="stroke:#000000;stroke-width:3.40045238;stroke-miterlimit:4;stroke-dasharray:none;stroke-opacity:1">
      <path
         inkscape:connector-curvature="0"
         id="path5074"
         d="m 49.375,108.25 -8.875,0.125 -3.625,-4.625 -4.625,3 -5.125,-2 -2.875,-5 0.375,-4.5 -4.875,-1 0.5,-5.125 L 23.375,86.5 19.625,80 19,68.5 l 0.375,-11.875 4,-10.125 7,-10.75 7,-5.375 7,2.625 -1.5,-6.25 L 49,24.625 59.125,23.75 62.5,24 l 2,3.5 0.25,8.125 -3.5,3.25 3.625,2.5 1.25,-1.25 0.75,-3.25 L 69.75,33.75 69.875,30.5 66.25,28.5 66,24.875 70.375,23 71.25,21.75 81.375,23.875 82.25,26.25 78,30.125 78.25,32 79.75,31.5 83.375,27 h 3.25 l 1.875,3.625 1.375,1.625 2.875,0.875 3.5,0.5 1.875,2.625 3.25,1 2,2 3,3.375 1.375,2.875 -0.625,3 2,0.75 1,3 1.375,2.875 0.25,2.625 0.75,5 0.75,4.125 -2.5,2.375 -3.875,0.125 3.75,2.75 1.625,4.875 -0.375,7.125 -5.625,0.5 -0.5,3 6.125,-1.75 1,2.625 -2.375,6.75 -6.125,3.625 -0.5,6.375 -3.75,1 -2.375,-0.75 -1.375,4.125 -3.75,-0.125 -1.875,-2 -8.5,1.75 -0.125,-8.125 -3.125,-0.25 -1.5,-7.75 -4.25,-2.75 3.125,-5.625 -7.25,1 -1.625,2 -9,-2.625 -3.625,0.875 2.75,5.125 -1.75,2.125 -2.375,1 0.375,5 -4.25,2.375 -0.25,3 z"
         style="fill:#ffffff;fill-opacity:1;stroke:#000000;stroke-width:3.40045238;stroke-linecap:butt;stroke-linejoin:miter;stroke-miterlimit:4;stroke-dasharray:none;stroke-opacity:1" />
      <path
         inkscape:connector-curvature="0"
         id="path5076"
         d="m 65.672542,84.512933 -2.386485,-4.684583 0.795495,-6.452349 -1.06066,-5.391689 -5.126524,-2.916816 -5.303301,-8.927223 1.679379,-0.53033 9.192388,3.977476 4.24264,-0.353554 7.247845,-3.18198 1.856155,1.237437 -0.265165,1.944543 -4.772971,6.98268 H 69.0313 l -2.828428,4.772971 0.707107,4.77297 0.972272,3.358758 z"
         style="fill:#000000;fill-opacity:1;stroke:#000000;stroke-width:3.40045238;stroke-linecap:butt;stroke-linejoin:miter;stroke-miterlimit:4;stroke-dasharray:none;stroke-opacity:1" />
    </g>
  </g>
</svg>
