<?xml version="1.0" encoding="UTF-8" standalone="no"?>
<!-- Created with Inkscape (http://www.inkscape.org/) -->

<svg
   xmlns:dc="http://purl.org/dc/elements/1.1/"
   xmlns:cc="http://creativecommons.org/ns#"
   xmlns:rdf="http://www.w3.org/1999/02/22-rdf-syntax-ns#"
   xmlns:svg="http://www.w3.org/2000/svg"
   xmlns="http://www.w3.org/2000/svg"
   xmlns:sodipodi="http://sodipodi.sourceforge.net/DTD/sodipodi-0.dtd"
   xmlns:inkscape="http://www.inkscape.org/namespaces/inkscape"
   width="512"
   height="512"
   viewBox="0 0 512.00001 512.00001"
   id="svg2"
   version="1.1"
   inkscape:version="0.92.2 (5c3e80d, 2017-08-06)"
   sodipodi:docname="MRI.svg"
   inkscape:export-filename="D:\HBP\HiBoP\Assets\Sprites\3D Buttons\MRI.png"
   inkscape:export-xdpi="12"
   inkscape:export-ydpi="12">
  <defs
     id="defs4" />
  <sodipodi:namedview
     id="base"
     pagecolor="#ffffff"
     bordercolor="#666666"
     borderopacity="1.0"
     inkscape:pageopacity="0.0"
     inkscape:pageshadow="2"
     inkscape:zoom="0.98994949"
     inkscape:cx="-50.04346"
     inkscape:cy="221.79923"
     inkscape:document-units="px"
     inkscape:current-layer="g3823"
     showgrid="false"
     units="px"
     inkscape:window-width="2560"
     inkscape:window-height="1377"
     inkscape:window-x="-8"
     inkscape:window-y="-8"
     inkscape:window-maximized="1" />
  <metadata
     id="metadata7">
    <rdf:RDF>
      <cc:Work
         rdf:about="">
        <dc:format>image/svg+xml</dc:format>
        <dc:type
           rdf:resource="http://purl.org/dc/dcmitype/StillImage" />
        <dc:title />
      </cc:Work>
    </rdf:RDF>
  </metadata>
  <g
     inkscape:label="Calque 1"
     inkscape:groupmode="layer"
     id="layer1"
     transform="translate(0,-540.36216)">
    <g
       id="g3823"
       transform="matrix(1.3942804,0,0,1.3942804,-105.2306,-355.85855)">
      <path
         inkscape:connector-curvature="0"
         id="path3796"
         d="m 110.10663,871.54485 c -7.38755,-27.70528 -12.482687,-58.40503 0.78805,-85.263 10.06343,-20.0073 15.50968,-41.73495 23.41236,-62.55252 13.36183,-28.22185 43.33899,-45.08987 73.39114,-49.56796 18.25025,-2.04411 31.24474,-16.05244 47.87986,-21.92712 28.23059,-5.23165 52.77727,13.95814 78.60576,21.77411 22.78856,6.90205 42.91994,21.96785 53.54765,43.59632 21.57306,38.23499 40.39866,83.9247 27.09752,128.13246 -4.60284,13.51773 7.33642,27.58634 1.33295,42.47324 -7.47011,42.23046 -31.23893,84.0052 -70.68975,103.54263 -18.27837,7.62608 -38.78395,11.76939 -58.55174,9.69869 -12.00057,-3.91793 -19.68592,-19.70451 -29.51376,-3.84305 -14.70098,12.52615 -32.90217,-2.00543 -49.21219,-2.64592 -35.56557,-6.24435 -65.24465,-33.82999 -77.74435,-67.12982 -5.63517,-19.18967 -15.2128,-36.95774 -20.3435,-56.28806 z"
         style="fill:#ffffff;fill-opacity:1;fill-rule:evenodd;stroke:#000000;stroke-width:10;stroke-linecap:round;stroke-linejoin:miter;stroke-miterlimit:4;stroke-dasharray:none;stroke-opacity:1" />
      <path
         inkscape:connector-curvature="0"
         id="path3799"
         d="m 107.07617,855.38241 c 0,0 27.04103,2.77011 39.92114,6.81189 11.52874,3.61773 32.80984,15.41147 32.80984,15.41147"
         style="fill:none;fill-rule:evenodd;stroke:#000000;stroke-width:10;stroke-linecap:round;stroke-linejoin:miter;stroke-miterlimit:4;stroke-dasharray:none;stroke-opacity:1"
         sodipodi:nodetypes="cac" />
      <path
         inkscape:connector-curvature="0"
         id="path3801"
         d="m 204.32227,704.88477 c -7.10011,1.83913 -12.22895,7.31392 -17.57537,11.96673 -4.8595,4.22906 -10.0881,8.56266 -12.97829,14.31996 -5.93401,11.82061 -5.93151,25.8201 -7.65786,38.93342 -1.09421,8.3116 0.62487,17.03757 -1.69834,25.09255 -1.60497,5.56471 -3.21059,12.4228 -8.23847,15.29723 -7.01172,4.00858 -16.27089,0.54848 -24.2125,-0.92247 -8.8753,-1.64389 -17.18916,-5.66438 -25.63332,-8.72882 -8.083745,-0.15484 -5.37689,11.92256 1.61991,11.26163 14.18949,5.53482 29.16836,10.80723 44.62477,9.82448 9.77007,-1.02257 16.44894,-9.85234 20.97838,-17.8353 6.26796,-11.04703 3.99187,-25.08969 6.29588,-37.58032 2.11161,-11.44755 1.18081,-24.09395 6.89782,-34.23402 4.84576,-8.59476 21.8014,-20.02148 21.8014,-20.02148 1.73566,-3.03436 -0.6466,-7.44321 -4.22401,-7.37359 z"
         style="color:#000000;font-style:normal;font-variant:normal;font-weight:normal;font-stretch:normal;font-size:medium;line-height:normal;font-family:sans-serif;text-indent:0;text-align:start;text-decoration:none;text-decoration-line:none;text-decoration-style:solid;text-decoration-color:#000000;letter-spacing:normal;word-spacing:normal;text-transform:none;direction:ltr;block-progression:tb;writing-mode:lr-tb;baseline-shift:baseline;text-anchor:start;white-space:normal;clip-rule:nonzero;display:inline;overflow:visible;visibility:visible;opacity:1;isolation:auto;mix-blend-mode:normal;color-interpolation:sRGB;color-interpolation-filters:linearRGB;solid-color:#000000;solid-opacity:1;fill:#000000;fill-opacity:1;fill-rule:evenodd;stroke:none;stroke-width:10;stroke-linecap:round;stroke-linejoin:miter;stroke-miterlimit:4;stroke-dasharray:none;stroke-dashoffset:0;stroke-opacity:1;color-rendering:auto;image-rendering:auto;shape-rendering:auto;text-rendering:auto;enable-background:accumulate"
         sodipodi:nodetypes="caaaaaacccaaacc" />
      <path
         sodipodi:nodetypes="csc"
         inkscape:connector-curvature="0"
         id="path3803"
         d="m 393.95949,732.1438 c 0,0 -21.72604,10.29823 -33.33503,10.10153 -16.71521,-0.28323 -47.47717,-16.16244 -47.47717,-16.16244"
         style="fill:none;fill-rule:evenodd;stroke:#000000;stroke-width:10;stroke-linecap:round;stroke-linejoin:miter;stroke-miterlimit:4;stroke-dasharray:none;stroke-opacity:1" />
      <path
         sodipodi:nodetypes="cac"
         inkscape:connector-curvature="0"
         id="path3805"
         d="m 358.09907,746.79102 c 0,0 -5.13919,20.69504 -5.83313,31.27811 -0.93846,14.31242 2.29761,42.96809 2.29761,42.96809"
         style="fill:none;fill-rule:evenodd;stroke:#000000;stroke-width:10;stroke-linecap:round;stroke-linejoin:miter;stroke-miterlimit:4;stroke-dasharray:none;stroke-opacity:1" />
      <path
         style="color:#000000;font-style:normal;font-variant:normal;font-weight:normal;font-stretch:normal;font-size:medium;line-height:normal;font-family:sans-serif;text-indent:0;text-align:start;text-decoration:none;text-decoration-line:none;text-decoration-style:solid;text-decoration-color:#000000;letter-spacing:normal;word-spacing:normal;text-transform:none;direction:ltr;block-progression:tb;writing-mode:lr-tb;baseline-shift:baseline;text-anchor:start;white-space:normal;clip-rule:nonzero;display:inline;overflow:visible;visibility:visible;opacity:1;isolation:auto;mix-blend-mode:normal;color-interpolation:sRGB;color-interpolation-filters:linearRGB;solid-color:#000000;solid-opacity:1;fill:#000000;fill-opacity:1;fill-rule:evenodd;stroke:none;stroke-width:10;stroke-linecap:round;stroke-linejoin:miter;stroke-miterlimit:4;stroke-dasharray:none;stroke-dashoffset:0;stroke-opacity:1;color-rendering:auto;image-rendering:auto;shape-rendering:auto;text-rendering:auto;enable-background:accumulate"
         d="m 297.40306,918.79083 c -4.85155,-0.97179 -7.26058,6.73704 -11.12479,9.82731 -4.31904,3.454 -7.93461,9.29541 -13.44896,9.71513 -5.7113,0.43471 -9.58073,-7.39969 -15.29176,-7.83798 -3.00667,-0.23074 -8.10682,-0.12752 -8.58598,2.84968 -1.21183,7.52949 15.79203,6.47392 18.35658,13.65617 3.22307,9.02648 -6.76497,18.3112 -6.98198,27.89339 -0.13696,6.04773 -1.40729,14.39949 3.60513,17.78614 1.84904,1.24931 5.16575,0.50884 6.58351,-1.21443 3.5809,-4.35254 -0.55672,-11.28305 -0.1945,-16.90765 0.48021,-7.45688 0.28178,-15.28941 3.13086,-22.19726 2.37832,-5.76643 6.29795,-11.13863 11.20899,-14.98438 5.14534,-4.02923 15.75851,-1.51955 18.05703,-7.63723 1.42682,-3.7976 -1.33635,-10.15212 -5.31413,-10.94889 z"
         id="path3807"
         inkscape:connector-curvature="0"
         sodipodi:nodetypes="aaaaaaaaaaaaaa" />
      <path
         inkscape:connector-curvature="0"
         id="path3809"
         d="m 213.14219,993.77331 c 0,0 -3.52507,-20.96802 -2.11738,-31.34518 1.13903,-8.3966 8.40807,-23.98971 8.40807,-23.98971"
         style="fill:none;fill-rule:evenodd;stroke:#000000;stroke-width:10;stroke-linecap:round;stroke-linejoin:miter;stroke-miterlimit:4;stroke-dasharray:none;stroke-opacity:1"
         sodipodi:nodetypes="cac" />
      <path
         inkscape:connector-curvature="0"
         id="path3811"
         d="m 369.71583,969.52965 c 0,0 -5.66123,-14.4697 -10.40704,-20.4788 -5.39297,-6.82851 -19.89753,-16.89684 -19.89753,-16.89684"
         style="fill:none;fill-rule:evenodd;stroke:#000000;stroke-width:10;stroke-linecap:round;stroke-linejoin:miter;stroke-miterlimit:4;stroke-dasharray:none;stroke-opacity:1"
         sodipodi:nodetypes="cac" />
      <path
         sodipodi:nodetypes="ccszsaasssssssscc"
         inkscape:connector-curvature="0"
         id="path3815"
         d="m 269.46094,782.80069 c -3.15529,0.14733 -5.38524,9.20793 -4.61719,12.27186 0,0 -2.65974,11.36092 -1.55128,22.65826 1.10846,11.29733 4.12987,23.84079 -0.27734,31.58482 -4.40721,7.74403 -8.55912,6.84479 -18.70904,11.33671 -10.14992,4.49192 -29.90098,3.56528 -31.02986,14.99777 -0.71574,7.24843 10.22318,14.20151 17.43387,13.173 9.1525,-1.30549 5.72943,-17.44232 16.57143,-22.24052 2.1638,-0.9576 12.60783,-5.67446 23.87875,-4.71289 5.54403,0.47299 15.95246,4.5738 22.37513,9.1773 10.54818,7.56048 17.61972,16.47683 28.55138,12.90532 5.23497,-1.71033 10.12676,-9.04039 8.35361,-14.25441 -2.57758,-7.57949 -11.20893,-4.04786 -20.57212,-5.73866 -13.01455,-2.35016 -27.01826,-7.28339 -31.86708,-14.30869 -6.31016,-9.1426 -4.13959,-17.28487 -5.32195,-29.33541 -1.18237,-12.05054 1.89887,-27.53753 1.89887,-27.53753 -0.52524,-2.37684 -2.68568,-10.09107 -5.11718,-9.97693 z"
         style="color:#000000;font-style:normal;font-variant:normal;font-weight:normal;font-stretch:normal;font-size:medium;line-height:normal;font-family:sans-serif;text-indent:0;text-align:start;text-decoration:none;text-decoration-line:none;text-decoration-style:solid;text-decoration-color:#000000;letter-spacing:normal;word-spacing:normal;text-transform:none;direction:ltr;block-progression:tb;writing-mode:lr-tb;baseline-shift:baseline;text-anchor:start;white-space:normal;clip-rule:nonzero;display:inline;overflow:visible;visibility:visible;opacity:1;isolation:auto;mix-blend-mode:normal;color-interpolation:sRGB;color-interpolation-filters:linearRGB;solid-color:#000000;solid-opacity:1;fill:#000000;fill-opacity:1;fill-rule:evenodd;stroke:none;stroke-width:10;stroke-linecap:round;stroke-linejoin:miter;stroke-miterlimit:4;stroke-dasharray:none;stroke-dashoffset:0;stroke-opacity:1;color-rendering:auto;image-rendering:auto;shape-rendering:auto;text-rendering:auto;enable-background:accumulate" />
    </g>
  </g>
</svg>
