<?xml version="1.0" encoding="UTF-8" standalone="no"?>
<!-- Created with Inkscape (http://www.inkscape.org/) -->

<svg
   xmlns:dc="http://purl.org/dc/elements/1.1/"
   xmlns:cc="http://creativecommons.org/ns#"
   xmlns:rdf="http://www.w3.org/1999/02/22-rdf-syntax-ns#"
   xmlns:svg="http://www.w3.org/2000/svg"
   xmlns="http://www.w3.org/2000/svg"
   xmlns:sodipodi="http://sodipodi.sourceforge.net/DTD/sodipodi-0.dtd"
   xmlns:inkscape="http://www.inkscape.org/namespaces/inkscape"
   width="128px"
   height="128px"
   viewBox="0 0 128 128"
   version="1.1"
   id="SVGRoot"
   inkscape:version="0.92.2 (5c3e80d, 2017-08-06)"
   sodipodi:docname="sagital.svg"
   inkscape:export-filename="D:\HBP\HiBoP\Assets\Sprites\3D Buttons\sagital.png"
   inkscape:export-xdpi="96"
   inkscape:export-ydpi="96">
  <sodipodi:namedview
     id="base"
     pagecolor="#ffffff"
     bordercolor="#666666"
     borderopacity="1.0"
     inkscape:pageopacity="0.0"
     inkscape:pageshadow="2"
     inkscape:zoom="2"
     inkscape:cx="-25.306947"
     inkscape:cy="26.073952"
     inkscape:document-units="px"
     inkscape:current-layer="layer1"
     showgrid="false"
     inkscape:window-width="2560"
     inkscape:window-height="1377"
     inkscape:window-x="-8"
     inkscape:window-y="-8"
     inkscape:window-maximized="1"
     inkscape:grid-bbox="true" />
  <defs
     id="defs5666" />
  <metadata
     id="metadata5669">
    <rdf:RDF>
      <cc:Work
         rdf:about="">
        <dc:format>image/svg+xml</dc:format>
        <dc:type
           rdf:resource="http://purl.org/dc/dcmitype/StillImage" />
        <dc:title></dc:title>
      </cc:Work>
    </rdf:RDF>
  </metadata>
  <g
     id="layer1"
     inkscape:groupmode="layer"
     inkscape:label="Calque 1">
    <g
       id="g6242"
       style="stroke:#000000;stroke-width:4;stroke-miterlimit:4;stroke-dasharray:none;stroke-opacity:1"
       transform="matrix(0.93368641,0,0,0.93368641,3.98184,11.332366)">
      <path
         inkscape:connector-curvature="0"
         id="path6236"
         d="m 47.022601,100.59961 1.237437,4.94975 -4.065864,3.0052 -7.071068,-0.17677 -3.18198,-1.06066 -3.181981,-3.88909 -5.126524,-1.59099 -4.949748,-3.005205 -4.77297,-3.889087 -3.181981,-2.474874 0.176777,-3.358757 2.12132,-2.298097 0.883884,-2.474874 L 13.965359,83.629049 12.197592,81.861282 9.7227182,79.916739 4.7729708,77.795418 3.3587572,73.906331 1.767767,67.365593 3.3587572,58.173205 5.8336309,52.693128 8.8388348,47.74338 l 1.0606601,-5.480077 2.4748741,-0.883884 1.767767,1.59099 -0.353554,-6.363961 1.767767,-2.828427 4.596194,0.707107 -2.828427,-3.71231 4.419418,-4.065864 6.363961,-2.651651 4.24264,0.883884 -3.005204,-4.949748 3.181981,-4.949747 3.535534,-1.237437 2.65165,0.883883 0.53033,6.717515 2.121321,0.353553 V 11.680934 l 2.298097,-1.7677666 3.535534,2.1213206 3.005204,0.707107 2.828427,-3.5355343 h 4.77297 l 3.181981,1.4142133 4.419417,3.535534 0.883884,1.06066 2.828427,-2.65165 1.237437,-0.53033 3.358757,2.12132 3.181981,-0.176777 1.59099,6.010408 7.778174,0.883884 5.126525,0.883883 3.005203,2.828427 3.712311,-0.353553 2.651654,2.12132 7.07106,4.065864 3.88909,5.303301 -3.0052,3.535534 1.41421,2.298097 2.12132,-1.944544 3.88909,-0.707107 3.0052,5.126525 0.17678,2.65165 2.2981,-0.176777 0.88388,3.889088 -3.18198,4.596194 5.3033,0.707107 -0.17678,2.828427 -1.76776,1.944543 3.35875,1.237437 0.17678,3.358757 -1.76777,2.828428 1.06066,2.298097 -0.88388,2.474873 -3.18198,0.883884 -1.59099,-1.06066 -0.70711,1.59099 3.18198,0.707107 v 3.358757 l -1.94454,1.944544 -2.47487,0.176776 -0.88389,2.121321 -4.94975,0.176776 -4.77297,2.298097 -6.18718,1.06066 -4.419418,-0.353553 -10.783378,-2.12132 -7.247845,-6.363961 h -7.601397 l 0.53033,1.59099 3.005203,1.237437 0.353554,1.237437 -0.883884,2.298097 -2.298097,1.414213 -1.59099,-5.480077 h -1.767767 l -0.883883,1.237437 -0.176777,4.949747 -0.707107,4.772971 c 0,0 -1.06066,1.767767 -1.06066,2.65165 0,0.883884 -2.474874,4.242641 -2.474874,4.242641 l -5.126524,1.59099 -3.712311,-0.883883 -2.828427,-0.53033 z"
         style="fill:#ffffff;fill-opacity:1;stroke:#000000;stroke-width:4;stroke-linecap:butt;stroke-linejoin:miter;stroke-miterlimit:4;stroke-dasharray:none;stroke-opacity:1" />
      <path
         inkscape:connector-curvature="0"
         id="path6238"
         d="M 93.514872,68.426254 87.681241,57.112545 81.140503,54.284118 69.826795,53.400235 H 58.336309 l -2.828427,1.237436 -2.298097,-2.12132 1.590991,-3.712311 3.889087,-2.298097 5.303301,-0.53033 11.844038,1.590991 10.429825,4.949747 8.838835,6.010408 2.298097,5.126524 -0.883883,2.828427 -2.651651,2.65165 z"
         style="fill:#000000;fill-opacity:1;stroke:#000000;stroke-width:4;stroke-linecap:butt;stroke-linejoin:miter;stroke-miterlimit:4;stroke-dasharray:none;stroke-opacity:1" />
    </g>
  </g>
</svg>
