<?xml version="1.0" encoding="UTF-8" standalone="no"?>
<!-- Created with Inkscape (http://www.inkscape.org/) -->

<svg
   xmlns:dc="http://purl.org/dc/elements/1.1/"
   xmlns:cc="http://creativecommons.org/ns#"
   xmlns:rdf="http://www.w3.org/1999/02/22-rdf-syntax-ns#"
   xmlns:svg="http://www.w3.org/2000/svg"
   xmlns="http://www.w3.org/2000/svg"
   xmlns:sodipodi="http://sodipodi.sourceforge.net/DTD/sodipodi-0.dtd"
   xmlns:inkscape="http://www.inkscape.org/namespaces/inkscape"
   width="128px"
   height="128px"
   viewBox="0 0 128 128"
   version="1.1"
   id="SVGRoot"
   inkscape:export-filename="D:\HBP\HiBoP\Assets\Sprites\3D Buttons\Scene\StandardViews.png"
   inkscape:export-xdpi="48"
   inkscape:export-ydpi="48"
   inkscape:version="0.92.2 (5c3e80d, 2017-08-06)"
   sodipodi:docname="scene_StandardViews.svg">
  <sodipodi:namedview
     id="base"
     pagecolor="#ffffff"
     bordercolor="#666666"
     borderopacity="1.0"
     inkscape:pageopacity="0.0"
     inkscape:pageshadow="2"
     inkscape:zoom="4"
     inkscape:cx="-13.206855"
     inkscape:cy="46.844223"
     inkscape:document-units="px"
     inkscape:current-layer="layer1"
     showgrid="false"
     inkscape:window-width="2560"
     inkscape:window-height="1377"
     inkscape:window-x="-8"
     inkscape:window-y="-8"
     inkscape:window-maximized="1"
     inkscape:grid-bbox="true" />
  <defs
     id="defs3758" />
  <metadata
     id="metadata3761">
    <rdf:RDF>
      <cc:Work
         rdf:about="">
        <dc:format>image/svg+xml</dc:format>
        <dc:type
           rdf:resource="http://purl.org/dc/dcmitype/StillImage" />
        <dc:title />
      </cc:Work>
    </rdf:RDF>
  </metadata>
  <g
     id="layer1"
     inkscape:groupmode="layer"
     inkscape:label="Calque 1">
    <path
       style="fill:#ffffff;fill-opacity:1;stroke:#000000;stroke-width:3;stroke-linecap:butt;stroke-linejoin:miter;stroke-miterlimit:4;stroke-dasharray:none;stroke-opacity:1"
       d="m 30.79414,114.01576 0.26517,4.24265 2.65165,2.12132 h 3.27037 l 3.62392,-0.97228 3.53553,-2.65165 2.47488,-2.91681 0.35355,-1.59099 2.56326,-1.06066 0.88389,-2.38649 1.94454,-2.29809 2.65165,-2.03294 1.23744,-2.56326 0.88388,-4.15425 -0.17678,-1.41421 0.88389,-1.32583 -1.32583,-2.2981 -0.35355,-1.76776 v -2.03294 l 0.35355,-2.12132 -0.70711,-1.59099 -1.06066,-2.65165 -1.06066,-2.65165 -1.76776,-3.09359 -1.23744,-1.5026 0.44194,-3.97748 -0.53033,-1.94454 -2.20971,-1.41421 0.61872,-1.23744 -1.94454,-1.94454 -1.59099,-2.20971 -2.65165,-0.0884 -1.94455,-1.5026 -1.32582,0.35355 -1.06066,-0.7955 -1.32583,-0.26516 -1.76776,-0.35355 -2.65165,-0.53033 -2.82845,0.88389"
       id="path834"
       inkscape:connector-curvature="0"
       sodipodi:nodetypes="ccccccccccccccccccccccccccccccccccccccc" />
    <path
       style="fill:#ffffff;stroke:#000000;stroke-width:3;stroke-linecap:butt;stroke-linejoin:miter;stroke-opacity:1;stroke-miterlimit:4;stroke-dasharray:none;fill-opacity:1"
       d="M 25.625,22.9375 31.4375,27.5 39,29.1875 l 3.875,4.25 3.375,3.625 L 48.5625,41 49.125,44.875 47.5,47.5625 45.3125,48.375 h -1.125 L 43.25,47.5625 H 42.5625 L 42.125,48.75 40.5625,49.625 38.9375,49.5 37.4375,49.25 35.375,47.6875 33,46.625 l -4.375,-3 -1.5,-0.125 -1.375,0.3125 -1.5,0.4375 -1.6875,0.4375 -0.9375,-0.25 -1.25,-1.375 -1.125,0.375 H 17.9375 L 16.5,42.25 14.375,40.5 14,39.25 12.625,38.8125 9.6875,38.5 8.1875,38.8125 5.8125,37.6875 3.75,34.75 3.6875,30.8125 4.0625,28.375 4.6875,26 6.0625,23.6875 6.6875,21.5 7.75,18.8125 8.6875,18.9375 8.4375,17 10.0625,15.1875 11.75,12.875 12.625,11.9375 13.5625,11.8125 13.875,9.75 15.4375,8.9375 16.6875,9 V 7.25 l 2.625,-2.125 1.875,-0.0625 1.9375,-1.375 3.8125,-0.0625 1.3125,0.5625 0.375,0.4375 -0.5,0.625 0.875,0.0625 1.25,-0.875 2.25,-0.125 1.4375,0.0625 1.5625,1 h 2.25 l 3.1875,1.5 2.75,1.5625 1.5625,1 1.9375,0.125 1.375,1.3125 2.0625,1.0625 1.1875,1.0625 2.5625,2.375 2.75,2.5625 1.875,2.5 0.375,2.0625 1.375,0.5625 0.9375,2.375 0.3125,1.5 -0.625,0.6875 1.25,1.6875 0.0625,1.1875 -1.375,2.125 v 1.9375 l -0.625,2.125 -2.25,1.4375 -2.125,0.75 L 55.25,38.625 53.9375,39.5 51.625,39.8125 48.6875,40.1875 48,40.25"
       id="path828"
       inkscape:connector-curvature="0" />
    <path
       style="fill:#ffffff;stroke:#000000;stroke-width:3;stroke-linecap:butt;stroke-linejoin:miter;stroke-opacity:1;stroke-miterlimit:4;stroke-dasharray:none;fill-opacity:1"
       d="m 99.044931,56.57145 -4.3125,3.5 -1.75,1.8125 -3.4375,-0.375 -2.0625,0.75 -2.75,3.3125 -2.8125,1.3125 -2.5,2.375 -2.75,3.125 -1.0625,2.5 -0.375,2.75 1.5625,2.1875 1.5625,0.749997 0.625,-0.374997 1.5625,0.562497 1.25,0.875 4.0625,1 2.1875,-0.625 2.5,-1.687497 1.875,-1.625 h 1.25 l 1.0625,-1.4375 1.5,-0.5 2,0.125 3.687499,0.625 1.75,-0.25 1,-1.5 1.625,0.6875 1.8125,-0.625 1.6875,-1.6875 0.125,-1.375 6.625,-1.125 1.5,0.75 1.0625,-0.3125 0.3125,-1.3125 1.25,-0.9375 0.125,-2.3125 0.8125,-1.25 -0.375,-4.8125 -0.8125,-0.375 -0.125,-2.0625 -2.3125,-4.5 -1.3125,-3.625 -2,-2.5 -1.875,-2.6875 -2.125,-1.6875 -0.875,-0.25 -0.125,-1.9375 -3.6875,-2.9375 -1.5625,-0.4375 -1.25,0.125 -0.5625,0.625 -0.5625,-2.0625 -1.1875,-0.5625 -6.437499,0.25 -2.375,0.875 -1,-0.6875 h -1.5625 l -1.75,0.625 -1,1.375 -1.125,-0.25 -2.0625,0.75 -9.125,4.375 -0.8125,0.875 -0.4375,1.375 -1.875,-0.0625 -1.6875,1.875 -0.75,1.4375 -0.875,1.125 -1.375,0.6875 -1.1875,1.5625 -0.4375,1.5625 -1.0625,0.75 -1.125,1.5 -0.0625,1.6875 0.3125,0.875 -1.1875,1.4375 -0.1875,1.5 0.25,3.3125 1.125,1.75 -0.4375,2.125 1.5,1.5 1.1875,0.25 0.625,0.75 5.6875,1.375 2.9375,0.125 1.5625,0.375 0.4375,-1.0625"
       id="path830"
       inkscape:connector-curvature="0" />
    <path
       style="fill:#ffffff;fill-opacity:1;stroke:#000000;stroke-width:3;stroke-linecap:butt;stroke-linejoin:miter;stroke-miterlimit:4;stroke-dasharray:none;stroke-opacity:1"
       d="m 30.79414,114.01576 -2.47487,3.53554 -2.12132,2.74004 -2.74004,-0.35356 -4.33103,-2.65165 -3.09359,-3.0052 -1.59099,-1.23744 -0.0884,-3.35875 -2.74004,-2.2981 -2.65165,-3.18198 -1.59099,-3.8007 L 6.31056,97.8407 7.01767,96.42648 6.04539,91.47674 6.7525,87.49926 6.6641,85.55472 l 1.50261,-2.65165 1.32582,-5.39169 1.85616,-1.14905 0.17677,-4.86136 0.53033,-1.59099 2.03293,-1.76777 0.70711,-2.56326 1.23744,-1.59099 3.0052,-1.59099 2.91682,-0.61872 2.56326,-0.97227 2.03293,-1.06066 1.32583,-0.53033 2.03293,1.06066 0.79549,2.91681 -0.0884,3.0936 0.35355,2.12132 -0.0884,3.09359 v 6.54074 l 0.26517,8.22011 0.35355,7.24785 -0.17678,6.62912 -0.17677,5.48008 -0.0884,5.39169 z"
       id="path832"
       inkscape:connector-curvature="0" />
    <path
       style="fill:none;fill-opacity:1;stroke:#000000;stroke-width:3;stroke-linecap:butt;stroke-linejoin:miter;stroke-miterlimit:4;stroke-dasharray:none;stroke-opacity:1"
       d="m 11.34869,76.36233 2.82844,-2.56326 2.20971,-0.61872 3.00521,1.06066 1.59099,2.20971 1.85615,1.85615 0.7955,3.27037 0.44194,3.44715 0.26516,5.21491 0.62316,3.49892 1.860091,1.804994 -0.141491,6.180606"
       id="path836"
       inkscape:connector-curvature="0"
       sodipodi:nodetypes="cccccccccccc" />
    <path
       style="fill:none;fill-opacity:1;stroke:#000000;stroke-width:3;stroke-linecap:butt;stroke-linejoin:miter;stroke-miterlimit:4;stroke-dasharray:none;stroke-opacity:1"
       d="m 50.68152,75.30167 -4.94975,-2.03293 -2.03293,0.44194 -1.76777,1.76777 -1.67937,2.29809 -0.97228,2.03293 0.7955,1.23744 -1.14905,2.91682 -0.61872,1.94454 -0.26516,3.88909 0.0884,2.91681 -2.38649,2.91682 0.0884,6.18718"
       id="path838"
       inkscape:connector-curvature="0" />
  </g>
</svg>
