<?xml version="1.0" encoding="UTF-8" standalone="no"?>
<!-- Created with Inkscape (http://www.inkscape.org/) -->

<svg
   xmlns:dc="http://purl.org/dc/elements/1.1/"
   xmlns:cc="http://creativecommons.org/ns#"
   xmlns:rdf="http://www.w3.org/1999/02/22-rdf-syntax-ns#"
   xmlns:svg="http://www.w3.org/2000/svg"
   xmlns="http://www.w3.org/2000/svg"
   xmlns:sodipodi="http://sodipodi.sourceforge.net/DTD/sodipodi-0.dtd"
   xmlns:inkscape="http://www.inkscape.org/namespaces/inkscape"
   width="128px"
   height="128px"
   viewBox="0 0 128 128"
   version="1.1"
   id="SVGRoot"
   inkscape:export-filename="D:\HBP\HiBoP\Assets\Sprites\3D Buttons\Scene\StandardViews.png"
   inkscape:export-xdpi="48"
   inkscape:export-ydpi="48"
   inkscape:version="0.92.2 (5c3e80d, 2017-08-06)"
   sodipodi:docname="scene_StandardViews.svg">
  <sodipodi:namedview
     id="base"
     pagecolor="#ffffff"
     bordercolor="#666666"
     borderopacity="1.0"
     inkscape:pageopacity="0.0"
     inkscape:pageshadow="2"
     inkscape:zoom="2"
     inkscape:cx="-121.4409"
     inkscape:cy="-4.1644521"
     inkscape:document-units="px"
     inkscape:current-layer="layer1"
     showgrid="false"
     inkscape:window-width="2560"
     inkscape:window-height="1377"
     inkscape:window-x="-8"
     inkscape:window-y="-8"
     inkscape:window-maximized="1"
     inkscape:grid-bbox="true" />
  <defs
     id="defs3758" />
  <metadata
     id="metadata3761">
    <rdf:RDF>
      <cc:Work
         rdf:about="">
        <dc:format>image/svg+xml</dc:format>
        <dc:type
           rdf:resource="http://purl.org/dc/dcmitype/StillImage" />
        <dc:title />
      </cc:Work>
    </rdf:RDF>
  </metadata>
  <g
     id="layer1"
     inkscape:groupmode="layer"
     inkscape:label="Calque 1">
    <path
       style="fill:#ffffff;stroke:#000000;stroke-width:0.5;stroke-linecap:butt;stroke-linejoin:miter;stroke-opacity:1;paint-order:normal;stroke-miterlimit:4;stroke-dasharray:none;fill-opacity:1"
       d="m 16.393543,42.959469 3.414572,1.247633 4.268213,0.328323 4.79354,0.196995 5.581509,-3.742896 1.969941,-0.06566 1.575956,1.116303 2.889253,0.262657 2.692256,1.313299 3.08625,-0.459656 3.742894,-2.232603 2.035612,-3.217577 0.984975,-3.67723 0.722306,-2.889252 3.020588,-0.919308 5.909831,-2.692258 3.611568,-3.283241 0.459657,-2.757924 L 66.561473,17.941171 65.248176,15.445908 63.475232,12.359661 60.651642,9.9300623 57.040073,8.0914476 53.362842,6.6468211 49.816945,5.661849 45.548733,5.1365302 42.002827,4.8082055 38.128608,4.7425431 34.51704,4.8738727 c 0,0 -3.08625,0 -3.34891,0 -0.262659,0 -3.677231,1.5102909 -3.677231,1.5102909 l -0.525318,0.6566484 -2.429597,0.3283238 -1.1163,0.9193078 -1.838616,-0.1313297 -1.96995,-0.5909831 -1.904278,0.9193068 -1.510293,1.5759564 -1.181963,1.444626 -0.984975,1.510291 -1.510284,1.050637 -0.984975,1.772951 -0.26266,1.444626 -1.444621,1.838615 -1.247635,2.298269 -0.8536497,1.838615 0.1969969,4.202549 v 2.429599 l -0.3939844,2.692258 0.3939844,2.298269 1.3132968,3.545901 2.101275,2.363934 2.626594,1.575956 z"
       id="path3849"
       inkscape:connector-curvature="0" />
    <path
       style="fill:#ffffff;stroke:#000000;stroke-width:0.5;stroke-linecap:butt;stroke-linejoin:miter;stroke-opacity:1;paint-order:normal;stroke-miterlimit:4;stroke-dasharray:none;fill-opacity:1"
       d="m 76.428523,60.802157 -1.473647,1.540632 0.200953,2.076506 0.736819,2.545388 2.14349,2.009522 1.071751,0.334922 -0.133969,1.473647 1.808569,1.205719 2.679356,0.669834 2.545397,0.06694 1.138726,-1.6746 2.478412,1.540631 1.741585,-0.401906 0.535875,-0.669835 4.019035,1.607616 2.746345,1.138725 3.3492,1.272694 1.07175,0.535875 2.88031,-1.339678 2.54539,-1.071741 3.28222,0.200953 1.87556,0.535866 1.74158,0.401906 2.34444,-1.07175 2.27746,-1.942528 1.80857,-2.27746 1.54063,-3.282216 -0.13397,-3.818091 -0.66984,-1.205719 0.66984,-1.272694 0.20095,-1.6746 -0.60285,-1.406662 0.20095,-1.674601 -0.33492,-1.808568 -1.20572,-1.540641 -0.8038,-0.736819 0.20095,-4.219997 -1.40667,-1.808569 -2.61237,0.06694 0.93777,-2.411419 -2.67936,-2.076507 -2.34444,-2.210475 -2.21047,-0.937772 -2.07651,-0.468891 -3.08126,-1.004765 -3.08127,-0.267938 -2.14349,-1.004756 -3.014275,-0.535875 -2.813332,-0.736819 -4.286972,0.267938 -2.74635,0.267928 -3.349201,0.334922 -3.751106,0.334921 -2.679357,0.870797 -2.076506,0.267929 -1.741594,1.808569 -2.545388,0.133968 -1.607616,0.937782 -1.6746,1.808569 -0.535875,1.540631 -1.406663,0.736828 -0.535875,2.746341 -0.937772,1.406672 -0.669844,2.210466 0.06694,3.215232 1.875553,1.674609 1.607616,1.942529 0.736828,1.07175 4.019035,1.071741 2.143491,1.205709 2.009522,0.60286 z"
       id="path3862"
       inkscape:connector-curvature="0" />
    <path
       style="fill:#ffffff;stroke:#000000;stroke-width:0.5;stroke-linecap:butt;stroke-linejoin:miter;stroke-opacity:1;paint-order:normal;stroke-miterlimit:4;stroke-dasharray:none;fill-opacity:1"
       d="m 46.617818,118.4971 -1.38433,2.58408 h -5.352744 l -3.599258,-0.92288 -2.676372,-2.30722 -3.50697,-1.6612 -2.676371,-3.2301 -1.661197,-3.04553 -2.399505,-3.50697 -1.38433,-3.04552 -1.292042,-3.13782 -0.276866,-3.32239 -0.09229,-2.67637 -0.184577,-4.42986 0.738309,-3.32239 1.199753,-3.50697 V 80.1973 l 1.938062,-3.50697 1.661197,-2.21493 1.938062,-3.41468 0.738309,-3.23011 c 0,0 1.384331,-1.19975 1.661197,-1.5689 0.276866,-0.36916 3.876124,-2.86095 3.876124,-2.86095 l 2.860949,-1.29204 2.676372,-0.36916 2.307217,1.38433 0.738309,0.0923 0.830599,-1.29204 2.214928,-0.27687 1.661196,-0.18457 0.830598,1.47661 3.783836,0.0923 1.107464,1.01518 2.214927,1.29204 1.292041,1.10746 0.553732,1.75349 0.184578,1.6612 1.938062,0.18457 0.276866,2.30722 1.199753,1.19975 1.476619,1.29204 0.646021,2.21493 0.369154,0.92289 1.568908,1.29204 1.568907,1.75349 1.199753,2.86094 0.369155,1.93807 0.738309,3.69154 0.369155,3.59926 0.184577,2.86095 -0.553732,3.69155 -0.738309,1.84577 -0.184577,0.27687 -0.09229,2.12264 -0.830598,0.64602 -0.461444,2.03035 -0.64602,2.49179 c 0,0 -0.461444,1.01518 -0.553732,1.47662 -0.09229,0.46145 -1.938063,2.4918 -1.938063,2.4918 l -1.292041,1.66119 -2.307217,1.38433 -1.107464,1.6612 -2.491795,1.29204 -1.38433,0.8306 -1.93806,0.0923 -2.307217,0.27686 -2.399506,-0.83059 z"
       id="path3877"
       inkscape:connector-curvature="0" />
  </g>
</svg>
