<?xml version="1.0" encoding="UTF-8" standalone="no"?>
<!-- Created with Inkscape (http://www.inkscape.org/) -->

<svg
   xmlns:dc="http://purl.org/dc/elements/1.1/"
   xmlns:cc="http://creativecommons.org/ns#"
   xmlns:rdf="http://www.w3.org/1999/02/22-rdf-syntax-ns#"
   xmlns:svg="http://www.w3.org/2000/svg"
   xmlns="http://www.w3.org/2000/svg"
   xmlns:sodipodi="http://sodipodi.sourceforge.net/DTD/sodipodi-0.dtd"
   xmlns:inkscape="http://www.inkscape.org/namespaces/inkscape"
   width="512"
   height="512"
   viewBox="0 0 511.99999 511.99999"
   id="svg3853"
   version="1.1"
   inkscape:version="0.91 r13725"
   inkscape:export-filename="C:\Users\Adrien\Desktop\cercle3.png"
   inkscape:export-xdpi="90"
   inkscape:export-ydpi="90"
   sodipodi:docname="circle3.svg">
  <defs
     id="defs3855" />
  <sodipodi:namedview
     id="base"
     pagecolor="#ffffff"
     bordercolor="#666666"
     borderopacity="1.0"
     inkscape:pageopacity="0.0"
     inkscape:pageshadow="2"
     inkscape:zoom="1.4142136"
     inkscape:cx="298.70092"
     inkscape:cy="260.27409"
     inkscape:document-units="px"
     inkscape:current-layer="layer1"
     showgrid="false"
     units="px"
     inkscape:window-width="1920"
     inkscape:window-height="1017"
     inkscape:window-x="3832"
     inkscape:window-y="118"
     inkscape:window-maximized="1" />
  <metadata
     id="metadata3858">
    <rdf:RDF>
      <cc:Work
         rdf:about="">
        <dc:format>image/svg+xml</dc:format>
        <dc:type
           rdf:resource="http://purl.org/dc/dcmitype/StillImage" />
        <dc:title></dc:title>
      </cc:Work>
    </rdf:RDF>
  </metadata>
  <g
     inkscape:label="Calque 1"
     inkscape:groupmode="layer"
     id="layer1"
     transform="translate(0,-540.36219)">
    <path
       style="opacity:1;fill:#ffffff;fill-opacity:1;stroke:#7d7d7d;stroke-width:0.84844536;stroke-linecap:round;stroke-linejoin:round;stroke-miterlimit:4;stroke-dasharray:none;stroke-opacity:1"
       d="M 256,541.78639 A 254.57567,254.57567 0 0 0 1.4242227,796.36217 254.57567,254.57567 0 0 0 256,1050.938 254.57567,254.57567 0 0 0 510.57578,796.36217 254.57567,254.57567 0 0 0 256,541.78639 Z m 0,11.7041 A 24.727675,24.727675 0 0 1 280.72724,578.21772 24.727675,24.727675 0 0 1 256,602.94496 24.727675,24.727675 0 0 1 231.27276,578.21772 24.727675,24.727675 0 0 1 256,553.49049 Z m -67.82383,10.68854 a 24.727675,24.727675 0 0 1 23.86927,17.08339 24.727675,24.727675 0 0 1 -15.87719,31.15905 24.727675,24.727675 0 0 1 -31.15904,-15.87524 24.727675,24.727675 0 0 1 15.87719,-31.15904 24.727675,24.727675 0 0 1 7.28977,-1.20816 z m 136.36945,0.0214 a 24.727675,24.727675 0 0 1 6.56799,1.18676 24.727675,24.727675 0 0 1 15.87719,31.15904 24.727675,24.727675 0 0 1 -31.15905,15.87524 24.727675,24.727675 0 0 1 -15.87718,-31.15905 24.727675,24.727675 0 0 1 24.59105,-17.06199 z m -197.5864,30.99952 a 24.727676,24.727676 0 0 1 20.70396,10.18466 24.727676,24.727676 0 0 1 -5.46878,34.53837 24.727676,24.727676 0 0 1 -34.54032,-5.47073 24.727676,24.727676 0 0 1 5.47073,-34.53837 24.727676,24.727676 0 0 1 13.83441,-4.71393 z m 256.33257,0.0136 a 24.727675,24.727675 0 0 1 15.58341,4.70031 24.727675,24.727675 0 0 1 5.47072,34.53837 24.727675,24.727675 0 0 1 -34.54031,5.47073 24.727675,24.727675 0 0 1 -5.46878,-34.53837 24.727675,24.727675 0 0 1 18.95496,-10.17104 z m 48.65487,48.29301 a 24.727676,24.727676 0 0 1 20.70396,10.18273 24.727676,24.727676 0 0 1 -5.47073,34.53837 24.727676,24.727676 0 0 1 -34.53837,-5.46879 24.727676,24.727676 0 0 1 5.47073,-34.54032 24.727676,24.727676 0 0 1 13.83441,-4.71199 z m -353.642319,0.0117 a 24.727675,24.727675 0 0 1 15.583413,4.70031 24.727675,24.727675 0 0 1 5.470732,34.54032 24.727675,24.727675 0 0 1 -34.53837,5.46879 24.727675,24.727675 0 0 1 -5.470731,-34.53837 24.727675,24.727675 0 0 1 18.954956,-10.17105 z m 385.005649,60.8473 a 24.727675,24.727675 0 0 1 23.86732,17.08533 24.727675,24.727675 0 0 1 -15.87524,31.15904 24.727675,24.727675 0 0 1 -31.15904,-15.87718 24.727675,24.727675 0 0 1 15.87524,-31.15904 24.727675,24.727675 0 0 1 7.29172,-1.20815 z m -413.898193,0.0214 a 24.727675,24.727675 0 0 1 6.569937,1.18676 24.727675,24.727675 0 0 1 15.875237,31.15904 24.727675,24.727675 0 0 1 -31.159045,15.87718 24.727675,24.727675 0 0 1 -15.875237,-31.15904 24.727675,24.727675 0 0 1 24.589108,-17.06394 z m -11.75857,67.45031 a 24.727675,24.727675 0 0 1 24.727239,24.72723 24.727675,24.727675 0 0 1 -24.727239,24.72724 24.727675,24.727675 0 0 1 -24.72724,-24.72724 24.727675,24.727675 0 0 1 24.72724,-24.72723 z m 436.693543,0 a 24.727675,24.727675 0 0 1 24.72724,24.72723 24.727675,24.727675 0 0 1 -24.72724,24.72724 24.727675,24.727675 0 0 1 -24.72723,-24.72724 24.727675,24.727675 0 0 1 24.72723,-24.72723 z M 47.98964,839.31285 a 24.727675,24.727675 0 0 1 23.867331,17.08339 24.727675,24.727675 0 0 1 -15.875237,31.15905 24.727675,24.727675 0 0 1 -31.159045,-15.87718 24.727675,24.727675 0 0 1 15.875237,-31.15905 24.727675,24.727675 0 0 1 7.291714,-1.20621 z m 416.7425,0.0195 a 24.727675,24.727675 0 0 1 6.56993,1.18675 24.727675,24.727675 0 0 1 15.87524,31.15905 24.727675,24.727675 0 0 1 -31.15904,15.87718 24.727675,24.727675 0 0 1 -15.87524,-31.15905 24.727675,24.727675 0 0 1 24.58911,-17.06393 z M 78.654529,900.18739 a 24.727676,24.727676 0 0 1 20.703957,10.18272 24.727676,24.727676 0 0 1 -5.470732,34.54031 24.727676,24.727676 0 0 1 -34.538369,-5.47073 24.727676,24.727676 0 0 1 5.470731,-34.53837 24.727676,24.727676 0 0 1 13.834413,-4.71393 z m 352.941951,0.0136 a 24.727675,24.727675 0 0 1 15.58341,4.70032 24.727675,24.727675 0 0 1 5.47073,34.53837 24.727675,24.727675 0 0 1 -34.53837,5.47073 24.727675,24.727675 0 0 1 -5.47073,-34.54031 24.727675,24.727675 0 0 1 18.95496,-10.16911 z m -47.95646,48.29107 a 24.727676,24.727676 0 0 1 20.7059,10.18467 24.727676,24.727676 0 0 1 -5.47072,34.53837 24.727676,24.727676 0 0 1 -34.53837,-5.47073 24.727676,24.727676 0 0 1 5.46878,-34.53837 24.727676,24.727676 0 0 1 13.83441,-4.71394 z m -257.03099,0.0136 a 24.727675,24.727675 0 0 1 15.58537,4.70032 24.727675,24.727675 0 0 1 5.46878,34.53837 24.727675,24.727675 0 0 1 -34.53837,5.47073 24.727675,24.727675 0 0 1 -5.47073,-34.53837 24.727675,24.727675 0 0 1 18.95495,-10.17105 z m 196.51444,30.99368 a 24.727675,24.727675 0 0 1 23.86733,17.08339 24.727675,24.727675 0 0 1 -15.87719,31.15907 24.727675,24.727675 0 0 1 -31.15904,-15.8752 24.727675,24.727675 0 0 1 15.87718,-31.1591 24.727675,24.727675 0 0 1 7.29172,-1.20816 z m -133.52515,0.0214 a 24.727675,24.727675 0 0 1 6.56993,1.18676 24.727675,24.727675 0 0 1 15.87719,31.1591 24.727675,24.727675 0 0 1 -31.15904,15.8752 24.727675,24.727675 0 0 1 -15.87719,-31.15907 24.727675,24.727675 0 0 1 24.58911,-17.06199 z M 256,990.184 a 24.727675,24.727675 0 0 1 24.72724,24.7273 A 24.727675,24.727675 0 0 1 256,1039.6385 24.727675,24.727675 0 0 1 231.27276,1014.9113 24.727675,24.727675 0 0 1 256,990.184 Z"
       id="path4401"
       inkscape:connector-curvature="0" />
  </g>
</svg>
