<?xml version="1.0" encoding="UTF-8" standalone="no"?>
<!-- Created with Inkscape (http://www.inkscape.org/) -->

<svg
   xmlns:dc="http://purl.org/dc/elements/1.1/"
   xmlns:cc="http://creativecommons.org/ns#"
   xmlns:rdf="http://www.w3.org/1999/02/22-rdf-syntax-ns#"
   xmlns:svg="http://www.w3.org/2000/svg"
   xmlns="http://www.w3.org/2000/svg"
   xmlns:sodipodi="http://sodipodi.sourceforge.net/DTD/sodipodi-0.dtd"
   xmlns:inkscape="http://www.inkscape.org/namespaces/inkscape"
   width="512"
   height="512"
   viewBox="0 0 511.99999 511.99999"
   id="svg3853"
   version="1.1"
   inkscape:version="0.91 r13725"
   inkscape:export-filename="C:\Users\Adrien\Desktop\cercle3.png"
   inkscape:export-xdpi="90"
   inkscape:export-ydpi="90"
   sodipodi:docname="BackGroundCircle2.svg">
  <defs
     id="defs3855" />
  <sodipodi:namedview
     id="base"
     pagecolor="#646464"
     bordercolor="#666666"
     borderopacity="1.0"
     inkscape:pageopacity="0"
     inkscape:pageshadow="2"
     inkscape:zoom="1.4142136"
     inkscape:cx="142.07677"
     inkscape:cy="260.27409"
     inkscape:document-units="px"
     inkscape:current-layer="layer1"
     showgrid="false"
     units="px"
     inkscape:window-width="1920"
     inkscape:window-height="1137"
     inkscape:window-x="1912"
     inkscape:window-y="-8"
     inkscape:window-maximized="1" />
  <metadata
     id="metadata3858">
    <rdf:RDF>
      <cc:Work
         rdf:about="">
        <dc:format>image/svg+xml</dc:format>
        <dc:type
           rdf:resource="http://purl.org/dc/dcmitype/StillImage" />
        <dc:title></dc:title>
      </cc:Work>
    </rdf:RDF>
  </metadata>
  <g
     inkscape:label="Calque 1"
     inkscape:groupmode="layer"
     id="layer1"
     transform="translate(0,-540.36219)">
    <path
       style="opacity:1;fill:#ffffff;fill-opacity:1;stroke:#646464;stroke-width:0.99901962;stroke-linecap:round;stroke-linejoin:miter;stroke-miterlimit:4;stroke-dasharray:none;stroke-opacity:1"
       d="M 256 1.5 A 254.50049 254.50049 0 0 0 1.5 256 A 254.50049 254.50049 0 0 0 256 510.5 A 254.50049 254.50049 0 0 0 510.5 256 A 254.50049 254.50049 0 0 0 256 1.5 z M 256 26.511719 A 229.489 229.48898 0 0 1 485.48828 256 A 229.489 229.48898 0 0 1 256 485.48828 A 229.489 229.48898 0 0 1 26.511719 256 A 229.489 229.48898 0 0 1 256 26.511719 z M 256 66.421875 A 189.57787 189.57785 0 0 0 66.421875 256 A 189.57787 189.57785 0 0 0 256 445.57812 A 189.57787 189.57785 0 0 0 445.57812 256 A 189.57787 189.57785 0 0 0 256 66.421875 z "
       transform="translate(0,540.36219)"
       id="path3787" />
  </g>
</svg>
