<?xml version="1.0" encoding="UTF-8" standalone="no"?>
<!-- Created with Inkscape (http://www.inkscape.org/) -->

<svg
   xmlns:dc="http://purl.org/dc/elements/1.1/"
   xmlns:cc="http://creativecommons.org/ns#"
   xmlns:rdf="http://www.w3.org/1999/02/22-rdf-syntax-ns#"
   xmlns:svg="http://www.w3.org/2000/svg"
   xmlns="http://www.w3.org/2000/svg"
   xmlns:sodipodi="http://sodipodi.sourceforge.net/DTD/sodipodi-0.dtd"
   xmlns:inkscape="http://www.inkscape.org/namespaces/inkscape"
   width="512"
   height="512"
   viewBox="0 0 511.99999 511.99999"
   id="svg2"
   version="1.1"
   inkscape:version="0.91 r13725"
   sodipodi:docname="Selection.svg"
   inkscape:export-filename="D:\UnityProjects\HBP\Assets\Sprites\Selection.png"
   inkscape:export-xdpi="90"
   inkscape:export-ydpi="90">
  <defs
     id="defs4" />
  <sodipodi:namedview
     id="base"
     pagecolor="#323232"
     bordercolor="#666666"
     borderopacity="1.0"
     inkscape:pageopacity="0"
     inkscape:pageshadow="2"
     inkscape:zoom="1.4"
     inkscape:cx="239.57739"
     inkscape:cy="258.03098"
     inkscape:document-units="px"
     inkscape:current-layer="layer1"
     showgrid="false"
     units="px"
     inkscape:window-width="1920"
     inkscape:window-height="1017"
     inkscape:window-x="1912"
     inkscape:window-y="-8"
     inkscape:window-maximized="1" />
  <metadata
     id="metadata7">
    <rdf:RDF>
      <cc:Work
         rdf:about="">
        <dc:format>image/svg+xml</dc:format>
        <dc:type
           rdf:resource="http://purl.org/dc/dcmitype/StillImage" />
        <dc:title></dc:title>
      </cc:Work>
    </rdf:RDF>
  </metadata>
  <g
     inkscape:label="Calque 1"
     inkscape:groupmode="layer"
     id="layer1"
     transform="translate(0,-540.36219)">
    <path
       style="opacity:1;fill:#ffffff;fill-opacity:1;stroke:none;stroke-width:2;stroke-linecap:round;stroke-linejoin:round;stroke-miterlimit:4;stroke-dasharray:none;stroke-opacity:1"
       d="m 256,6 c -14.54678,0.079352 -29.05888,1.4282209 -43.37109,4.03125 l 8.64843,49.042969 C 232.74003,57.040861 244.35837,56.012215 256,56 c 84.03628,0.07583 159.06173,52.67706 187.7793,131.6543 l 46.84961,-17.05274 C 454.7551,71.899485 361.01909,6.139926 256,6 Z M 64.679688,95.462891 C 26.865893,140.41901 6.0909982,197.2554 6,256 6.00834,314.77254 26.722845,371.66325 64.505859,416.68164 L 102.94336,384.42969 C 72.692464,348.46474 56.072689,302.99563 56,256 56.0068,208.9821 72.578365,163.46969 102.80469,127.45508 Z M 443.70312,324.31836 C 415.00421,403.28017 340.01537,455.888 256,456 c -11.63755,-0.0633 -23.24736,-1.14229 -34.69727,-3.22461 L 212.5957,502.1582 C 226.92441,504.69963 241.44766,505.98511 256,506 361.04444,505.9048 454.82539,440.15406 490.72266,341.43359 Z"
       transform="translate(0,540.36219)"
       id="path3785"
       inkscape:connector-curvature="0"
       sodipodi:nodetypes="ccccccccccccccccccccc" />
  </g>
</svg>
