<?xml version="1.0" encoding="UTF-8" standalone="no"?>
<!-- Created with Inkscape (http://www.inkscape.org/) -->

<svg
   xmlns:dc="http://purl.org/dc/elements/1.1/"
   xmlns:cc="http://creativecommons.org/ns#"
   xmlns:rdf="http://www.w3.org/1999/02/22-rdf-syntax-ns#"
   xmlns:svg="http://www.w3.org/2000/svg"
   xmlns="http://www.w3.org/2000/svg"
   xmlns:sodipodi="http://sodipodi.sourceforge.net/DTD/sodipodi-0.dtd"
   xmlns:inkscape="http://www.inkscape.org/namespaces/inkscape"
   width="32px"
   height="32px"
   viewBox="0 0 32 32"
   version="1.1"
   id="SVGRoot"
   inkscape:version="0.92.2 (5c3e80d, 2017-08-06)"
   sodipodi:docname="Database_Manager_Icon.svg"
   inkscape:export-filename="D:\HBP\hbp_suite\hbp_BDD_manager\resources\HiBoP_icon.png"
   inkscape:export-xdpi="96.000008"
   inkscape:export-ydpi="96.000008">
  <sodipodi:namedview
     id="base"
     pagecolor="#ffffff"
     bordercolor="#666666"
     borderopacity="1.0"
     inkscape:pageopacity="0.0"
     inkscape:pageshadow="2"
     inkscape:zoom="8"
     inkscape:cx="55.093551"
     inkscape:cy="-5.9981534"
     inkscape:document-units="px"
     inkscape:current-layer="layer1"
     showgrid="false"
     inkscape:window-width="2560"
     inkscape:window-height="1377"
     inkscape:window-x="-8"
     inkscape:window-y="-8"
     inkscape:window-maximized="1"
     inkscape:grid-bbox="true" />
  <defs
     id="defs2171" />
  <metadata
     id="metadata2174">
    <rdf:RDF>
      <cc:Work
         rdf:about="">
        <dc:format>image/svg+xml</dc:format>
        <dc:type
           rdf:resource="http://purl.org/dc/dcmitype/StillImage" />
        <dc:title></dc:title>
      </cc:Work>
    </rdf:RDF>
  </metadata>
  <g
     id="layer1"
     inkscape:groupmode="layer"
     inkscape:label="Calque 1">
    <g
       inkscape:label="Background"
       id="layer1-5"
       transform="matrix(0.01676464,0,0,0.01676464,-0.13335482,14.818437)">
      <path
         style="fill:#000000;fill-opacity:1;stroke:#ffffff;stroke-width:39.85295868;stroke-linejoin:round;stroke-miterlimit:4;stroke-dasharray:none;stroke-opacity:1"
         d="m 1346.5478,861.78311 c -5.279,0.0353 -25.8305,-5.34331 -32.6614,-8.54744 -19.885,-9.32817 -40.2762,-28.51081 -56.6059,-53.25223 -3.1719,-4.80585 -7.4943,-11.09498 -9.6053,-13.9758 -3.8443,-5.24643 -40.4406,-50.16421 -58.6455,-71.98054 -17.9686,-21.53314 -79.5173,-89.56831 -84.7175,-93.6458 -1.3599,-1.0662 -7.8292,-4.51599 -14.3761,-7.66618 -25.3672,-12.20579 -51.0137,-31.32862 -72.2612,-53.88026 -3.4774,-3.69098 -10.7963,-12.42119 -16.2638,-19.40061 -5.46793,-6.97933 -10.52558,-12.926 -11.23925,-13.21492 -0.86813,-0.35128 -5.03027,1.21882 -12.56519,4.74045 -41.70881,19.49252 -61.00847,27.74804 -84.09934,35.97446 -11.87691,4.23116 -17.63267,5.70355 -52.17978,13.3481 -57.20727,12.65874 -60.38845,13.27042 -73.44672,14.12174 -14.91909,0.97277 -38.90381,0.59883 -53.42285,-0.8329 -27.57666,-2.71937 -61.24817,-10.82697 -89.65174,-21.58669 -11.17531,-4.23333 -18.58664,-7.52178 -42.10129,-18.68028 -5.24341,-2.48826 -16.30183,-6.78803 -24.57429,-9.55512 -32.01576,-10.70918 -52.80904,-23.23713 -65.64007,-39.54869 -6.28522,-7.99002 -8.14495,-12.45218 -10.5037,-25.20167 -1.76925,-9.56334 -2.27263,-11.12379 -5.15157,-15.96932 -1.7549,-2.95371 -4.70257,-9.58321 -6.55039,-14.73232 l -3.35969,-9.36198 -7.25396,-4.83586 c -12.08764,-8.05812 -19.69212,-14.60414 -25.16426,-21.66112 -2.8612,-3.69003 -5.33002,-7.25576 -5.48628,-7.92369 -0.61856,-2.64473 -2.4397,-2.96566 -13.5915,-2.39534 -64.57848,3.30239 -119.12031,-4.49304 -165.73749,-23.68812 -25.6193,-10.54908 -55.09724,-30.62481 -71.53181,-48.71615 -13.09582,-14.41607 -22.03901,-28.21642 -31.18895,-48.12821 l -5.28655,-11.50437 -8.71033,-6.24699 C 113.4099,249.804 96.636671,233.64066 81.51098,214.24333 64.669918,192.64621 56.893133,178.09299 51.684012,158.4261 46.155067,137.55182 45.724326,122.80702 50.127791,105.15567 51.44773,99.864628 52.43473,95.119241 52.321068,94.610314 52.207478,94.101407 50.628751,92.265402 48.812896,90.530318 43.873265,85.810437 38.804999,78.505778 35.120694,70.796332 32.331182,64.959277 31.509564,62.177763 29.717471,52.504435 25.631278,30.447993 28.341498,4.953124 38.219326,-27.472113 c 2.153493,-7.069082 3.60224,-14.534448 4.608281,-23.746405 2.391314,-21.89636 2.651926,-23.474892 7.209508,-43.667586 6.732359,-29.828206 14.190647,-49.007896 27.750941,-71.364016 5.440588,-8.96962 16.114783,-23.33348 17.615232,-23.70417 3.027705,-0.74794 37.075442,-55.5833 54.152702,-87.21515 38.3275,-70.99333 72.12706,-112.90981 106.89357,-132.56415 8.0729,-4.56362 24.87483,-9.84875 33.26361,-10.46303 l 4.85382,-0.35539 4.13009,-6.44445 c 27.39209,-42.7421 72.90409,-84.57683 120.4028,-110.67448 37.69826,-20.71292 75.58813,-33.25425 120.76588,-39.97326 l 12.56507,-1.86855 8.89374,-6.10837 c 17.50864,-12.02517 42.88248,-25.43467 67.92663,-35.89788 10.85718,-4.53594 14.73049,-5.6761 43.75429,-12.87993 31.15591,-7.733 32.18062,-7.932 47.51111,-9.22536 l 15.6684,-1.32179 11.67231,-6.04831 c 23.93973,-12.40524 34.04448,-16.08602 65.49185,-23.85573 26.15915,-6.46338 33.17306,-7.5483 52.95973,-8.19297 24.08844,-0.78461 46.31453,1.44323 67.66659,6.78264 l 10.44232,2.61114 22.50867,-5.55147 c 12.37981,-3.05294 26.89545,-6.22382 32.25716,-7.04552 36.25767,-5.55718 73.67457,-4.72403 115.10207,2.56258 8.4163,1.4803 16.2199,2.17465 23.6008,2.0999 68.5841,-0.69492 129.5048,9.02845 182.659,29.15364 37.2081,14.0876 69.0647,33.96716 96.5778,60.26729 4.4567,4.2606 13.4063,11.33863 20.4126,16.14451 14.5576,9.98527 21.0578,15.27403 29.2921,23.83293 5.9419,6.17641 12.4526,15.32013 14.7232,20.67734 1.054,2.48629 2.0132,3.05832 8.5666,5.10792 9.0862,2.8419 31.451,12.029 42.2468,17.35449 4.4142,2.1775 15.5617,8.88827 24.7724,14.9129 23.8984,15.63155 39.2367,29.44292 54.7384,49.28902 16.6233,21.28243 25.1705,38.64588 35.3819,71.87732 l 2.0759,6.75675 5.07,1.54713 c 14.6568,4.47276 25.7158,10.57879 39.0287,21.54891 21.8766,18.02701 41.8369,42.61323 58.9332,72.59112 7.4351,13.03729 7.9963,13.78291 14.0229,18.62869 29.9994,24.12165 56.4216,68.74166 79.1914,133.73196 7.6863,21.937712 10.4196,31.0893 24.2115,81.064912 11.6559,42.2357453 20.8031,87.09411 24.1898,118.628206 11.5376,107.436772 -12.397,192.934942 -67.8596,242.403052 -25.645,22.87307 -52.7632,36.60404 -90.8985,46.02517 l -19.1714,4.73607 1.3287,3.42746 c 0.7312,1.88517 3.5757,8.33337 6.3216,14.32966 l 4.9926,10.90192 0.6714,9.34991 c 1.7314,24.11601 0.2113,33.07535 -8.2818,48.81565 -3.2263,5.97915 -3.3492,6.54073 -2.9655,13.52961 0.4865,8.86308 -0.1187,15.69841 -2.1769,24.57344 -10.6359,45.86642 -47.2009,92.69135 -98.3317,125.92377 -15.7423,10.2316 -41.8559,24.40056 -68.8741,37.37044 -34.7581,16.68519 -51.157,21.71892 -82.5607,25.34262 -9.5801,1.10553 -22.5166,3.53797 -44.4334,8.35514 l -30.9189,6.79562 -17.474,0.36283 c -9.6109,0.19961 -22.3222,0.34701 -28.2479,0.32778 -14.0206,-0.0457 -13.567,-0.19461 -11.9585,3.92967 1.9226,4.93008 10.5587,19.66934 28.199,48.1289 24.4034,39.37019 30.298,51.30019 33.0781,66.94421 0.8494,4.77912 1.2698,9.88188 0.9655,11.71832 -0.7104,4.28906 -3.9675,9.70203 -7.5253,12.50695 -7.3356,5.78349 -31.939,14.39144 -41.3116,14.4537 z"
         id="path5047"
         inkscape:connector-curvature="0" />
    </g>
    <text
       xml:space="preserve"
       style="font-style:normal;font-weight:normal;font-size:14.68685246px;line-height:1.25;font-family:sans-serif;letter-spacing:0px;word-spacing:0px;fill:#c26d35;fill-opacity:1;stroke:none;stroke-width:2.20302773"
       x="5.6853333"
       y="18.441271"
       id="text2868"><tspan
         sodipodi:role="line"
         id="tspan2866"
         x="5.6853333"
         y="18.441271"
         style="stroke-width:2.20302773">D</tspan></text>
    <text
       xml:space="preserve"
       style="font-style:normal;font-weight:normal;font-size:15.47119904px;line-height:1.25;font-family:sans-serif;letter-spacing:0px;word-spacing:0px;fill:#ffffff;fill-opacity:1;stroke:none;stroke-width:2.3206799"
       x="16.177273"
       y="21.04048"
       id="text2868-5"><tspan
         sodipodi:role="line"
         id="tspan2866-8"
         x="16.177273"
         y="21.04048"
         style="stroke-width:2.3206799">B</tspan></text>
  </g>
</svg>
