<?xml version="1.0" encoding="UTF-8" standalone="no"?>
<svg
   height="24px"
   viewBox="0 -960 960 960"
   width="24px"
   fill="#FFFFFF"
   version="1.1"
   id="svg4"
   sodipodi:docname="bid_landscape_24dp_FFFFFF_FILL0_wght400_GRAD0_opsz24.svg"
   inkscape:export-filename="C:\Users\Zigaroula\Documents\HBP\Software\HiBoP\Assets\Sprites\Google Material\Graph.png"
   inkscape:export-xdpi="2730.6667"
   inkscape:export-ydpi="2730.6667"
   inkscape:version="1.1.1 (3bf5ae0d25, 2021-09-20)"
   xmlns:inkscape="http://www.inkscape.org/namespaces/inkscape"
   xmlns:sodipodi="http://sodipodi.sourceforge.net/DTD/sodipodi-0.dtd"
   xmlns="http://www.w3.org/2000/svg"
   xmlns:svg="http://www.w3.org/2000/svg">
  <defs
     id="defs8" />
  <sodipodi:namedview
     id="namedview6"
     pagecolor="#505050"
     bordercolor="#ffffff"
     borderopacity="1"
     inkscape:pageshadow="0"
     inkscape:pageopacity="0"
     inkscape:pagecheckerboard="1"
     showgrid="false"
     inkscape:zoom="36.375"
     inkscape:cx="12"
     inkscape:cy="12"
     inkscape:window-width="2560"
     inkscape:window-height="1377"
     inkscape:window-x="1912"
     inkscape:window-y="-8"
     inkscape:window-maximized="1"
     inkscape:current-layer="svg4" />
  <path
     d="M200-120q-33 0-56.5-23.5T120-200v-560q0-33 23.5-56.5T200-840h560q33 0 56.5 23.5T840-760v560q0 33-23.5 56.5T760-120H200Zm0-162v82h560v-350L522-280 360-442 200-282Zm0-114 160-160 158 158 242-272v-90H200v364Zm0-154v-120 272-158 274-160 162-270Zm0 154v-364 362-158 160Zm0 114v-160 162-270 350-82Z"
     id="path2" />
</svg>
